<?xml version="1.0" encoding="UTF-8" standalone="no"?>
<svg
   version="1.1"
   width="156"
   height="156"
   id="svg12"
   sodipodi:docname="logo.svg"
   inkscape:version="1.4.2 (1:1.4.2+202505120737+ebf0e940d0)"
   xmlns:inkscape="http://www.inkscape.org/namespaces/inkscape"
   xmlns:sodipodi="http://sodipodi.sourceforge.net/DTD/sodipodi-0.dtd"
   xmlns="http://www.w3.org/2000/svg"
   xmlns:svg="http://www.w3.org/2000/svg">
  <defs
     id="defs12" />
  <sodipodi:namedview
     id="namedview12"
     pagecolor="#ffffff"
     bordercolor="#000000"
     borderopacity="0.25"
     inkscape:showpageshadow="2"
     inkscape:pageopacity="0.0"
     inkscape:pagecheckerboard="0"
     inkscape:deskcolor="#d1d1d1"
     inkscape:zoom="2.3207607"
     inkscape:cx="218.6783"
     inkscape:cy="49.768164"
     inkscape:window-width="1920"
     inkscape:window-height="1108"
     inkscape:window-x="0"
     inkscape:window-y="53"
     inkscape:window-maximized="1"
     inkscape:current-layer="svg12" />
  <path
     d="m 56.536602,54.723573 c 3.417178,3.112814 5.723125,6.545163 8.019531,10.511719 0.375188,0.636484 0.750376,1.272969 1.136933,1.928741 1.224161,2.079179 2.439993,4.163104 3.656036,6.24704 0.855178,1.455081 1.711062,2.909748 2.567627,4.364014 1.300249,2.207702 2.600084,4.415635 3.89769,6.624893 3.761812,6.403916 7.577346,12.774102 11.409683,19.1361 2.439169,4.0615 4.875909,8.12445 7.3125,12.1875 0.35506,0.59156 0.71011,1.18312 1.07593,1.7926 2.26112,3.76781 4.517448,7.53843 6.767738,11.31272 0.72449,1.21352 1.45052,2.42612 2.17816,3.63775 1.00594,1.67564 2.00588,3.35487 3.00552,5.03427 0.86227,1.44234 0.86227,1.44234 1.74195,2.91382 1.23071,2.30884 1.23071,2.30884 1.23071,4.30884 -9.23791,1.5714 -18.918539,2.86377 -28.000008,0 -6.699524,-5.33173 -9.878717,-13.749 -13.308105,-21.38086 -2.793972,-5.9766 -6.210157,-11.57145 -9.566895,-17.24414 -1.230594,-2.17367 -2.45981,-4.34812 -3.6875,-6.523443 -2.054172,-3.584486 -4.181409,-6.9975 -6.625,-10.328127 -2.511471,-3.470909 -4.526468,-6.403283 -5.8125,-10.523437 1.22363,-5.538849 3.778603,-9.389306 7,-14 1.156836,-1.951854 2.304068,-3.909463 3.4375,-5.875 0.848733,-1.378361 1.700615,-2.754825 2.5625,-4.125 z"
     fill="#6abbfe"
     id="path4" />
  <path
     d="m 47.536602,13.723573 c 7.097444,-0.599255 14.165496,-0.940025 21.289062,-0.769531 1.751111,0.0371 1.751111,0.0371 3.537598,0.07495 4.072247,0.891333 5.499247,2.458353 8.04834,5.69458 0.763329,1.889953 1.519814,3.783991 2.198242,5.706055 1.91933,4.750797 4.791834,9.038955 7.426758,13.418945 1.203197,2.070061 2.40364,4.141726 3.60156,6.214844 2.74019,4.708858 5.53344,9.381524 8.359388,14.039062 1.10935,1.837461 2.21796,3.675367 3.32641,5.513367 0.72083,1.189775 1.44557,2.377195 2.17432,3.562134 1.01995,1.658968 2.02554,3.326735 3.03052,4.994812 0.5812,0.952214 1.16241,1.904428 1.76123,2.885498 1.37106,2.931425 1.70091,4.476758 1.24658,7.665283 -1.10156,2.495361 -1.10156,2.495361 -2.625,5.082031 -0.81211,1.397022 -0.81211,1.397022 -1.64062,2.822266 -0.57235,0.959707 -1.14469,1.919414 -1.73438,2.908203 -0.57234,0.979043 -1.14469,1.958086 -1.73437,2.966797 -1.41234,2.412735 -2.8344,4.819151 -4.26563,7.220711 -3.216948,-2.96419 -5.337858,-5.962783 -7.511728,-9.750007 -0.32537,-0.561785 -0.650744,-1.123569 -0.985976,-1.702377 C 92.337243,91.05876 91.638277,89.844761 90.941753,88.629365 89.061273,85.349449 87.159571,82.08187 85.259258,78.813417 84.868582,78.140521 84.477905,77.467625 84.07539,76.774339 80.069423,69.889653 75.938631,63.083335 71.786602,56.286073 64.999054,45.163306 58.31226,33.984723 51.728985,22.739686 50.737321,21.062955 49.714954,19.404429 48.685039,17.750917 47.536602,15.723573 47.536602,15.723573 47.536602,13.723573 Z"
     fill="#0c7de9"
     id="path5" />
  <path
     d="m 23.256084,82.602479 c 10.384636,0.329388 10.384636,0.329388 13.803955,3.84375 2.289697,3.296857 3.80384,6.944767 5.31543,10.649414 2.243621,5.077877 5.250421,9.747107 8.098633,14.502937 1.191077,2.05207 2.379896,4.10545 3.566406,6.16016 3.638854,6.25229 7.417182,12.41513 11.296631,18.52099 3.199463,5.12036 3.199463,5.12036 3.199463,8.44385 -9.230007,1.70728 -18.954917,3.1004 -28,0 C 33.536206,138.74341 29.962172,129.61669 26.245098,121.36713 23.744656,115.89673 20.55987,110.8389 17.411602,105.72358 13.278491,98.815215 9.3521251,91.812192 5.5366021,84.723573 8.8717691,81.388405 18.811295,82.671342 23.256084,82.602479 Z"
     fill="#0e7ee9"
     id="path7" />
  <path
     d="m 88.536602,13.723573 c 24.721258,-2.33581 24.721258,-2.33581 31.047368,1.117676 3.14345,3.195133 4.4871,7.302044 5.97364,11.456054 1.88122,4.662251 4.6723,8.837583 7.2915,13.11377 1.10698,1.874641 2.21114,3.750958 3.3125,5.628906 2.25757,3.821165 4.55068,7.617518 6.875,11.398438 0.83471,1.364754 0.83471,1.364754 1.68628,2.75708 1.06179,1.732247 2.13067,3.460178 3.20752,5.183105 0.47462,0.776419 0.94923,1.552837 1.43823,2.352783 0.41999,0.676919 0.83999,1.353838 1.27271,2.05127 0.89526,1.940918 0.89526,1.940918 0.89526,5.940918 -4.3309,0.379943 -8.65752,0.609016 -13,0.8125 -1.22074,0.108926 -2.44148,0.217852 -3.69922,0.330078 -3.79794,0.133441 -6.67689,0.0245 -10.30078,-1.142578 -3.20382,-3.318778 -5.1307,-7.010465 -7.0849,-11.130341 -1.49592,-3.05634 -3.27631,-5.935811 -5.02838,-8.850128 -0.69481,-1.186647 -1.38758,-2.374487 -2.07837,-3.563476 C 104.20407,40.62875 98.031462,30.106398 91.584209,19.738466 88.536602,14.820858 88.536602,14.820858 88.536602,13.723573 Z"
     fill="#6cbcfe"
     id="path8" />
  <path
     d="m 35.536602,17.723573 c 4.362294,3.749495 6.90947,8.520625 9.75,13.4375 0.506602,0.84627 1.013203,1.692539 1.535156,2.564453 0.478242,0.823067 0.956485,1.646133 1.449219,2.494141 0.435381,0.744353 0.870762,1.488706 1.319336,2.255615 1.132253,2.690124 1.300957,4.351275 0.946289,7.248291 -1.129883,2.491943 -1.129883,2.491943 -2.703125,5.089844 -0.568477,0.949394 -1.136953,1.898789 -1.722656,2.876953 -0.601992,0.980332 -1.203985,1.960664 -1.824219,2.970703 -0.586523,0.976465 -1.173047,1.95293 -1.777344,2.958984 -1.139455,1.888423 -2.298725,3.76506 -3.479492,5.62793 -1.649687,2.598202 -1.649687,2.598202 -3.024414,6.143555 -3.814673,3.603418 -7.6881,2.938014 -12.773438,2.859375 -1.301953,-0.05027 -2.603906,-0.100547 -3.945312,-0.152344 -1.317422,-0.02707 -2.634844,-0.05414 -3.992187,-0.08203 -3.254249,-0.07075 -6.5052099,-0.169429 -9.7578129,-0.29297 1.448155,-3.826449 3.19012,-7.377036 5.1249999,-10.980469 0.619717,-1.156208 1.239434,-2.312417 1.87793,-3.503662 0.66552,-1.234548 1.331213,-2.469003 1.99707,-3.703369 0.678778,-1.262415 1.357488,-2.524867 2.036133,-3.787354 C 29.933836,26.925584 29.933836,26.925584 35.536602,17.723573 Z"
     fill="#0f7fe9"
     id="path9" />
  <path
     d="m 127.12865,84.610048 c 1.12592,0.0052 2.25183,0.01047 3.41187,0.01587 1.21494,0.0032 2.42988,0.0064 3.68164,0.0098 1.27939,0.0084 2.55878,0.01676 3.87695,0.02539 1.28326,0.0045 2.56652,0.009 3.88867,0.01367 3.18299,0.01183 6.36589,0.02832 9.54883,0.04883 -0.5943,3.833135 -1.7239,6.713912 -3.58985,10.105469 -0.53238,0.975095 -1.06476,1.950191 -1.61328,2.954834 -0.85851,1.547963 -0.85851,1.547963 -1.73437,3.127199 -0.58395,1.06486 -1.16789,2.1297 -1.76953,3.22682 -1.75706,3.1993 -3.52357,6.3932 -5.29297,9.58569 -0.49903,0.90299 -0.99806,1.80598 -1.51221,2.73633 -2.4388,4.4125 -4.88768,8.81921 -7.34717,13.22021 -2.05289,3.6778 -4.09634,7.36086 -6.14062,11.04345 -4.43379,-4.21195 -7.40066,-8.92666 -10.5625,-14.125 -0.59619,-0.89977 -1.19238,-1.79953 -1.80664,-2.72656 -3.97062,-6.60347 -3.97062,-6.60347 -3.07276,-10.68628 1.29528,-2.65347 2.78792,-5.01701 4.4419,-7.46216 1.03269,-1.76827 2.05869,-3.54045 3.07812,-5.31641 1.05347,-1.751001 2.11078,-3.499701 3.17188,-5.246092 0.54141,-0.90041 1.08281,-1.80082 1.64062,-2.728515 4.64213,-7.68852 4.64213,-7.68852 7.70142,-7.82251 z"
     fill="#6bbbfe"
     id="path10" />
</svg>
